<?xml version="1.0" encoding="UTF-8" standalone="no"?>
<!-- Created with Inkscape (http://www.inkscape.org/) -->

<svg
   width="11.627618mm"
   height="11.658553mm"
   viewBox="0 0 11.627618 11.658553"
   version="1.1"
   id="svg1"
   xml:space="preserve"
   inkscape:version="1.3 (0e150ed6c4, 2023-07-21)"
   sodipodi:docname="unfilled-char-cell.svg"
   inkscape:export-filename="logo.png"
   inkscape:export-xdpi="960"
   inkscape:export-ydpi="960"
   xmlns:inkscape="http://www.inkscape.org/namespaces/inkscape"
   xmlns:sodipodi="http://sodipodi.sourceforge.net/DTD/sodipodi-0.dtd"
   xmlns="http://www.w3.org/2000/svg"
   xmlns:svg="http://www.w3.org/2000/svg"><sodipodi:namedview
     id="namedview1"
     pagecolor="#ffffff"
     bordercolor="#000000"
     borderopacity="0.25"
     inkscape:showpageshadow="2"
     inkscape:pageopacity="0.0"
     inkscape:pagecheckerboard="0"
     inkscape:deskcolor="#d1d1d1"
     inkscape:document-units="mm"
     inkscape:zoom="7.283614"
     inkscape:cx="15.720218"
     inkscape:cy="41.943464"
     inkscape:window-width="1280"
     inkscape:window-height="729"
     inkscape:window-x="-8"
     inkscape:window-y="-8"
     inkscape:window-maximized="1"
     inkscape:current-layer="layer1" /><defs
     id="defs1" /><g
     inkscape:label="Layer 1"
     inkscape:groupmode="layer"
     id="layer1"
     transform="translate(-12.463532,-68.33434)"><path
       style="fill:none;fill-opacity:1;stroke:#79c6e1;stroke-width:0.0700001;stroke-linecap:butt;stroke-linejoin:round;stroke-dasharray:0.210001, 0.210001;stroke-dashoffset:0;stroke-opacity:1"
       d="m 24.091149,74.116779 -11.627617,2.48e-4"
       id="path11"
       sodipodi:nodetypes="cc" /><path
       style="fill:none;fill-opacity:1;stroke:#56bde1;stroke-width:0.07;stroke-linecap:butt;stroke-linejoin:round;stroke-dasharray:0.21, 0.21;stroke-dashoffset:0;stroke-opacity:1"
       d="m 18.268249,68.334341 2.48e-4,11.658552"
       id="path10"
       sodipodi:nodetypes="cc" /><path
       d="m 21.957077,74.116904 q 0,0.223558 -0.149038,0.372597 -0.149039,0.149039 -0.372597,0.149039 -0.223558,0 -0.372596,-0.149039 -0.149039,-0.149039 -0.149039,-0.372597 0,-0.223557 0.149039,-0.372596 0.149038,-0.149039 0.372596,-0.149039 0.223558,0 0.372597,0.149039 0.149038,0.149039 0.149038,0.372596 z m -6.33414,0 q 0,0.223558 -0.149039,0.372597 -0.149038,0.149039 -0.372596,0.149039 -0.223558,0 -0.372597,-0.149039 -0.149038,-0.149039 -0.149038,-0.372597 0,-0.223557 0.149038,-0.372596 0.149039,-0.149039 0.372597,-0.149039 0.223558,0 0.372596,0.149039 0.149039,0.149039 0.149039,0.372596 z m 3.16707,0 q 0,0.223558 -0.149039,0.372597 -0.149038,0.149039 -0.372596,0.149039 -0.223558,0 -0.372597,-0.149039 -0.149038,-0.149039 -0.149038,-0.372597 0,-0.223557 0.149038,-0.372596 0.149039,-0.149039 0.372597,-0.149039 0.223558,0 0.372596,0.149039 0.149039,0.149039 0.149039,0.372596 z"
       id="text1"
       style="font-size:9.53847px;line-height:1.2;font-family:'MS Mincho';-inkscape-font-specification:'MS Mincho';text-align:center;text-anchor:middle;white-space:pre;fill:#79c6e1;stroke-width:0.07;stroke-linejoin:round;stroke-dasharray:0.21, 0.21"
       aria-label="…" /></g></svg>
